<svg width="20" height="20" viewBox="0 0 20 20" fill="none" xmlns="http://www.w3.org/2000/svg" focusable="false">
    <path
        d="M17 10C17 13.7296 14.0832 16.778 10.4062 16.9884C10.2229 17.349 10.0011 17.6867 9.7461 17.996C9.83041 17.9987 9.91505 18 10 18C14.4183 18 18 14.4183 18 10C18 5.58172 14.4183 2 10 2C5.58172 2 2 5.58172 2 10C2 10.0849 2.00132 10.1696 2.00395 10.2539C2.3133 9.99891 2.65099 9.77706 3.01159 9.5938C3.22197 5.91685 6.27035 3 10 3C13.866 3 17 6.13401 17 10Z"
        fill="black">
    </path>
    <path
        d="M9.5 5C9.22386 5 9 5.22386 9 5.5V10.5C9 10.7761 9.22386 11 9.5 11H12.5C12.7761 11 13 10.7761 13 10.5C13 10.2239 12.7761 10 12.5 10H10V5.5C10 5.22386 9.77614 5 9.5 5Z"
        fill="black"></path>
    <path fill-rule="evenodd" clip-rule="evenodd"
        d="M5.5 19C7.98528 19 10 16.9853 10 14.5C10 12.0147 7.98528 10 5.5 10C3.01472 10 1 12.0147 1 14.5C1 16.9853 3.01472 19 5.5 19ZM3.14645 14.8536L5.14605 16.8532L5.14857 16.8557C5.19602 16.9026 5.25051 16.938 5.30861 16.9621C5.36669 16.9861 5.4303 16.9996 5.497 17L5.5 17L5.503 17C5.5697 16.9996 5.63331 16.9861 5.69139 16.9621C5.75036 16.9377 5.80561 16.9015 5.85355 16.8536L7.85355 14.8536C8.04882 14.6583 8.04882 14.3417 7.85355 14.1464C7.65829 13.9512 7.34171 13.9512 7.14645 14.1464L6 15.2929V12.5C6 12.2239 5.77614 12 5.5 12C5.22386 12 5 12.2239 5 12.5V15.2929L3.85355 14.1464C3.65829 13.9512 3.34171 13.9512 3.14645 14.1464C2.95118 14.3417 2.95118 14.6583 3.14645 14.8536Z"
        fill="black">
    </path>
</svg>