<svg width="20" height="20" viewBox="0 0 20 20" fill="none" xmlns="http://www.w3.org/2000/svg" focusable="false">
    <path fill-rule="evenodd" clip-rule="evenodd"
        d="M14.5 3C15.8807 3 17 4.11929 17 5.5V9.59971C16.6832 9.43777 16.3486 9.30564 16 9.20703V7H4V14.5C4 15.3284 4.67157 16 5.5 16H9.20703C9.30564 16.3486 9.43777 16.6832 9.59971 17H5.5C4.11929 17 3 15.8807 3 14.5V5.5C3 4.11929 4.11929 3 5.5 3H14.5ZM14.5 4H5.5C4.67157 4 4 4.67157 4 5.5V6H16V5.5C16 4.67157 15.3284 4 14.5 4Z"
        fill="#212121"></path>
    <path fill-rule="evenodd" clip-rule="evenodd"
        d="M19 14.5C19 16.9853 16.9853 19 14.5 19C12.0147 19 10 16.9853 10 14.5C10 12.0147 12.0147 10 14.5 10C16.9853 10 19 12.0147 19 14.5ZM17.4497 14.8713L15.682 16.6391C15.4867 16.8343 15.1701 16.8343 14.9749 16.6391C14.7796 16.4438 14.7796 16.1272 14.9749 15.932L16.3891 14.5178L14.9749 13.1036C14.7796 12.9083 14.7796 12.5917 14.9749 12.3964C15.1701 12.2012 15.4867 12.2012 15.682 12.3964L17.4497 14.1642C17.645 14.3595 17.645 14.6761 17.4497 14.8713ZM12.1464 12.3964C11.9512 12.5917 11.9512 12.9083 12.1464 13.1036L13.5607 14.5178L12.1464 15.932C11.9512 16.1272 11.9512 16.4438 12.1464 16.6391C12.3417 16.8343 12.6583 16.8343 12.8536 16.6391L14.6213 14.8713C14.8166 14.6761 14.8166 14.3595 14.6213 14.1642L12.8536 12.3964C12.6583 12.2012 12.3417 12.2012 12.1464 12.3964Z"
        fill="#212121">
    </path>
</svg>