<svg width="20" height="20" viewBox="0 0 20 20" fill="none" xmlns="http://www.w3.org/2000/svg" focusable="false">
    <path
        d="M17 10C17 13.7296 14.0832 16.778 10.4062 16.9884C10.2229 17.349 10.0011 17.6867 9.7461 17.996C9.83041 17.9987 9.91505 18 10 18C14.4183 18 18 14.4183 18 10C18 5.58172 14.4183 2 10 2C5.58172 2 2 5.58172 2 10C2 10.0849 2.00132 10.1696 2.00395 10.2539C2.3133 9.99891 2.65099 9.77706 3.01159 9.5938C3.22197 5.91685 6.27035 3 10 3C13.866 3 17 6.13401 17 10Z"
        fill="black"></path>
    <path
        d="M9.5 5C9.22386 5 9 5.22386 9 5.5V10.5C9 10.7761 9.22386 11 9.5 11H12.5C12.7761 11 13 10.7761 13 10.5C13 10.2239 12.7761 10 12.5 10H10V5.5C10 5.22386 9.77614 5 9.5 5Z"
        fill="black"></path>
    <path fill-rule="evenodd" clip-rule="evenodd"
        d="M10 14.5C10 12.0147 7.98528 10 5.5 10C3.01472 10 1 12.0147 1 14.5C1 16.9853 3.01472 19 5.5 19C7.98528 19 10 16.9853 10 14.5ZM5.85355 16.8536L7.85316 14.854L7.85567 14.8514C7.90256 14.804 7.93802 14.7495 7.96206 14.6914C7.98615 14.6333 7.9996 14.5697 7.99999 14.503L8 14.5L7.99999 14.497C7.9996 14.4303 7.98615 14.3667 7.96206 14.3086C7.93766 14.2496 7.90149 14.1944 7.85355 14.1464L5.85355 12.1464C5.65829 11.9512 5.34171 11.9512 5.14645 12.1464C4.95118 12.3417 4.95118 12.6583 5.14645 12.8536L6.29289 14H3.5C3.22386 14 3 14.2239 3 14.5C3 14.7761 3.22386 15 3.5 15H6.29289L5.14645 16.1464C4.95118 16.3417 4.95118 16.6583 5.14645 16.8536C5.34171 17.0488 5.65829 17.0488 5.85355 16.8536Z"
        fill="black"></path>
</svg>